<svg width="16" height="16" viewBox="0 0 16 16" fill="none" xmlns="http://www.w3.org/2000/svg">
<path d="M6.57501 15.125C6.37501 15.125 5.92501 15.3 5.77501 15.15C5.57501 14.95 5.77501 14 5.77501 14H5.20001C5.20001 14 5.40001 14.95 5.20001 15.15C5.05001 15.275 4.60001 15.125 4.40001 15.125C3.90001 15.125 3.47501 15.5 3.47501 15.5H7.47501C7.50001 15.5 7.10001 15.125 6.57501 15.125Z" fill="#E08828"/>
<path d="M11.575 15.125C11.375 15.125 10.925 15.3 10.775 15.15C10.575 14.95 10.775 14 10.775 14H10.2C10.2 14 10.4 14.95 10.2 15.15C10.05 15.275 9.60001 15.125 9.40001 15.125C8.90001 15.125 8.47501 15.5 8.47501 15.5H12.475C12.5 15.5 12.1 15.125 11.575 15.125" fill="#E08828"/>
<path d="M2.60001 6.75C-0.0999928 8.425 0.425007 10.75 0.825007 10.475C5.00001 7.425 6.05001 4.625 2.60001 6.75Z" fill="#3E4347"/>
<path d="M13.4 6.75C9.95002 4.625 11 7.425 15.175 10.475C15.575 10.75 16.1 8.425 13.4 6.75Z" fill="#3E4347"/>
<path d="M12 4.375C12 2.225 10.2 0.5 8 0.5C5.8 0.5 4 2.225 4 4.375C4 7.275 3 8.25 3 10.175C3 12.825 5.25 15 8 15C10.75 15 13 12.825 13 10.175C13 8.25 12 7.275 12 4.375" fill="#3E4347"/>
<path d="M11 4.7C11 1.6 8.475 2.2 8.475 4.525H7.55C7.525 2.2 5 1.6 5 4.7C5 7.125 4 8.625 4 10.225C4 13.125 5.925 14.5 8 14.5C10.075 14.5 12 13.1 12 10.225C12 8.625 11 7.125 11 4.7" fill="white"/>
<path d="M10.25 4.25C10.25 4.675 10.025 5 9.75 5C9.475 5 9.25 4.675 9.25 4.25C9.25 3.825 9.475 3.5 9.75 3.5C10.025 3.5 10.25 3.825 10.25 4.25Z" fill="#3E4347"/>
<path d="M6.75 4.25C6.75 4.675 6.525 5 6.25 5C5.975 5 5.75 4.675 5.75 4.25C5.75 3.825 5.975 3.5 6.25 3.5C6.525 3.5 6.75 3.825 6.75 4.25Z" fill="#3E4347"/>
<path d="M7 5.5H9C9 6.125 8.55 6.65 8 6.65C7.45 6.65 7 6.15 7 5.5Z" fill="#E08828"/>
<path d="M9.25 5.575L8 5.875L6.75 5.575C6.75 4.775 7.3 4.15 8 4.15C8.7 4.15 9.25 4.8 9.25 5.575Z" fill="#F29A2E"/>
<path d="M8.42501 4.45C8.50001 4.525 8.52501 4.625 8.50001 4.675C8.47501 4.725 8.37501 4.675 8.30001 4.6C8.22501 4.525 8.20001 4.425 8.22501 4.375C8.27501 4.35 8.37501 4.375 8.42501 4.45Z" fill="#3E4347"/>
<path d="M7.57501 4.45C7.50001 4.525 7.47501 4.625 7.50001 4.675C7.52501 4.725 7.62501 4.675 7.70001 4.6C7.77501 4.525 7.80001 4.425 7.77501 4.375C7.72501 4.35 7.62501 4.375 7.57501 4.45Z" fill="#3E4347"/>
</svg>
